<svg xmlns="http://www.w3.org/2000/svg" viewBox="0 0 32 32">
  <!-- 枫知屿主题favicon - 枫叶与岛屿 -->
  <defs>
    <linearGradient id="sky" x1="0%" y1="0%" x2="0%" y2="100%">
      <stop offset="0%" style="stop-color:#87CEEB;stop-opacity:1" />
      <stop offset="100%" style="stop-color:#E0F6FF;stop-opacity:1" />
    </linearGradient>
    <linearGradient id="sea" x1="0%" y1="0%" x2="0%" y2="100%">
      <stop offset="0%" style="stop-color:#4A90E2;stop-opacity:0.8" />
      <stop offset="100%" style="stop-color:#357ABD;stop-opacity:1" />
    </linearGradient>
    <linearGradient id="maple" x1="0%" y1="0%" x2="100%" y2="100%">
      <stop offset="0%" style="stop-color:#FF6B35;stop-opacity:1" />
      <stop offset="50%" style="stop-color:#DC143C;stop-opacity:1" />
      <stop offset="100%" style="stop-color:#8B0000;stop-opacity:1" />
    </linearGradient>
  </defs>

  <!-- 天空背景 -->
  <rect width="32" height="32" rx="6" fill="url(#sky)"/>

  <!-- 海洋波浪 -->
  <path d="M0 20 Q8 18 16 20 T32 20 L32 32 L0 32 Z" fill="url(#sea)"/>

  <!-- 岛屿 -->
  <ellipse cx="16" cy="22" rx="8" ry="4" fill="#8B7355"/>
  <ellipse cx="16" cy="21" rx="6" ry="3" fill="#A0826D"/>

  <!-- 枫叶 -->
  <g transform="translate(16, 16) scale(0.8)">
    <!-- 枫叶主体 -->
    <path d="M0 -8
             C-2 -10, -4 -10, -6 -8
             C-5 -6, -5 -4, -6 -2
             C-4 -1, -2 0, 0 0
             C2 0, 4 -1, 6 -2
             C5 -4, 5 -6, 6 -8
             C4 -10, 2 -10, 0 -8Z"
          fill="url(#maple)"
          stroke="#8B0000"
          stroke-width="0.3"/>

    <!-- 枫叶柄 -->
    <line x1="0" y1="0" x2="0" y2="4" stroke="#8B4513" stroke-width="0.8"/>

    <!-- 枫叶纹理 -->
    <line x1="0" y1="-6" x2="0" y2="-2" stroke="#8B0000" stroke-width="0.3" opacity="0.6"/>
    <line x1="-3" y1="-4" x2="-1" y2="-2" stroke="#8B0000" stroke-width="0.3" opacity="0.6"/>
    <line x1="3" y1="-4" x2="1" y2="-2" stroke="#8B0000" stroke-width="0.3" opacity="0.6"/>
  </g>

  <!-- 知识的光点 -->
  <circle cx="14" cy="14" r="0.5" fill="#FFD700" opacity="0.8"/>
  <circle cx="18" cy="15" r="0.4" fill="#FFD700" opacity="0.6"/>
  <circle cx="16" cy="12" r="0.3" fill="#FFD700" opacity="0.7"/>
</svg>